# Blender v2.63 (sub 0) OBJ File: ''
# www.blender.org
mtllib aggtest.mtl
o Bound_Cube
v -0.648165 -0.402064 1.389893
v -0.648165 -0.402064 -0.610107
v 1.351835 -0.402064 -0.610107
v 1.351835 -0.402064 1.389893
v -0.648165 1.597936 1.389893
v -0.648165 1.597936 -0.610107
v 1.351835 1.597936 -0.610107
v 1.351835 1.597936 1.389893
vn -1.000000 -0.000000 0.000000
vn 0.000000 0.000000 -1.000000
vn 1.000000 -0.000000 0.000000
vn 0.000000 0.000000 1.000000
vn -0.000000 -1.000000 0.000000
vn -0.000000 1.000000 0.000000
usemtl Material
s off
f 2//1 1//1 5//1
f 2//1 5//1 6//1
f 6//2 7//2 3//2
f 6//2 3//2 2//2
f 7//3 8//3 4//3
f 7//3 4//3 3//3
f 1//4 4//4 8//4
f 1//4 8//4 5//4
f 1//5 2//5 3//5
f 1//5 3//5 4//5
f 8//6 7//6 6//6
f 8//6 6//6 5//6
o Cube_Yolo
v 2.513413 -1.000000 -1.000000
v 2.513413 -1.000000 1.000000
v -1.000000 -1.000000 2.113132
v -0.999999 -1.000000 -2.113132
v 1.000000 1.000000 -0.999999
v 0.999999 1.000000 1.000001
v -1.000000 1.000000 1.000000
v -1.000000 1.000000 -1.000000
v 0.304202 3.660648 -0.304202
v 0.304202 3.660648 0.304202
v -0.304202 3.660648 0.304202
v -0.304202 3.660648 -0.304202
vn -0.967465 0.253006 -0.000000
vn 0.797426 0.603417 0.000000
vn 0.186928 0.328377 0.925865
vn 0.186928 0.328377 -0.925865
vn 0.967465 0.253006 0.000001
vn 0.000000 0.253006 -0.967465
vn -0.000000 0.253006 0.967465
usemtl Material
s off
f 9//5 10//5 11//5
f 9//5 11//5 12//5
f 19//7 20//7 16//7
f 19//7 16//7 15//7
f 9//8 13//8 14//8
f 9//8 14//8 10//8
f 10//9 14//9 15//9
f 10//9 15//9 11//9
f 11//1 15//1 16//1
f 11//1 16//1 12//1
f 13//10 9//10 12//10
f 13//10 12//10 16//10
f 17//6 20//6 19//6
f 17//6 19//6 18//6
f 17//11 18//11 14//11
f 17//11 14//11 13//11
f 13//12 16//12 20//12
f 13//12 20//12 17//12
f 18//13 19//13 15//13
f 18//13 15//13 14//13
