# Blender v2.63 (sub 0) OBJ File: 'loop.blend'
# www.blender.org
mtllib loop.mtl
o BezierCurve_Mesh
v -29.216049 19.851006 1.224256
v -29.019943 19.567471 1.224256
v -28.849957 19.285299 1.224256
v -28.699100 19.006338 1.224256
v -28.560389 18.732437 1.224256
v -28.426830 18.465446 1.224255
v -28.291433 18.207218 1.224255
v -28.147215 17.959597 1.224255
v -27.987183 17.724434 1.224255
v -27.804348 17.503584 1.224255
v -27.591722 17.298891 1.224255
v -27.342318 17.112207 1.224255
v -27.049143 16.945381 1.224255
v -26.196659 16.610836 1.224255
v -25.368990 16.440632 1.224255
v -24.560194 16.404387 1.224255
v -23.764334 16.471714 1.224255
v -22.975470 16.612236 1.224255
v -22.187660 16.795565 1.224255
v -21.394966 16.991322 1.224255
v -20.591448 17.169125 1.224255
v -19.771162 17.298588 1.224255
v -18.928173 17.349331 1.224255
v -18.056540 17.290970 1.224255
v -17.150320 17.093122 1.224255
v -15.821552 16.663864 1.222051
v -14.590495 16.202211 1.216241
v -13.444787 15.703479 1.208027
v -12.372069 15.162972 1.198611
v -11.359980 14.576001 1.189194
v -10.396158 13.937873 1.180980
v -9.468243 13.243902 1.175170
v -8.188645 11.514900 1.172966
v -7.533460 10.494862 1.175570
v -6.894930 9.406905 1.184185
v -6.262296 8.243352 1.200012
v -5.080312 6.118106 1.224253
v -4.323820 4.857948 1.237156
v -3.622368 3.858010 1.245579
v -2.996500 2.798450 1.250164
v -2.262915 1.692120 1.251550
v -1.452940 0.528941 1.250377
v -0.670733 -0.704018 1.247285
v 0.343711 -1.705264 1.242912
v 1.413402 -2.916115 1.237900
v 2.579845 -4.050333 1.232888
v 3.848133 -5.037551 1.228516
v 5.223356 -5.926964 1.225423
v 6.710603 -6.487159 1.224250
v 8.125588 -6.904975 1.232639
v 9.548990 -7.252726 1.254755
v 11.077954 -7.496888 1.286023
v 12.481882 -7.737460 1.321867
v 13.857921 -7.789179 1.357710
v 15.193969 -7.728191 1.388978
v 16.477924 -7.511024 1.411095
v 17.697681 -7.137954 1.419484
v 18.841143 -6.594673 1.409570
v 19.155918 -6.388413 1.093472
v 19.955774 -5.486753 0.761569
v 20.661268 -4.579872 0.395885
v 20.982162 -3.730406 0.329765
v 21.271080 -2.929737 0.277439
v 21.370289 -2.190403 0.233678
v 21.424095 -1.240359 0.193247
v 21.350817 -0.294715 0.150913
v 21.154728 0.754068 0.101443
v 20.840107 1.647358 0.039605
v 20.344425 2.492697 -0.039836
v 19.805574 3.275565 -0.142111
v 19.161022 3.981446 -0.272454
v 18.529667 4.595823 -0.436098
v 17.743860 5.104177 -0.638275
v 16.978338 5.420677 -0.813042
v 16.208015 5.605261 -0.960214
v 15.438945 5.665984 -1.086522
v 14.677190 5.610902 -1.198699
v 13.928802 5.448071 -1.303475
v 13.199839 5.185547 -1.407581
v 12.496358 4.831384 -1.517750
v 11.824414 4.393639 -1.640712
v 11.190066 3.880366 -1.783199
v 10.599369 3.299622 -1.951942
v 10.058380 2.659463 -2.153672
v 9.573154 1.967945 -2.395122
v 9.261034 1.419400 -2.587050
v 9.017624 0.863904 -2.763362
v 8.841586 0.303449 -2.927264
v 8.731585 -0.259969 -3.081966
v 8.686279 -0.824356 -3.230675
v 8.704335 -1.387717 -3.376601
v 8.784414 -1.948057 -3.522951
v 8.925179 -2.503383 -3.672932
v 9.125293 -3.051699 -3.829755
v 9.383417 -3.591011 -3.996627
v 9.698215 -4.119325 -4.176756
v 10.068349 -4.634646 -4.373351
v 10.809883 -5.451361 -4.238570
v 11.464219 -5.949392 -4.317353
v 12.090977 -6.263655 -4.228127
v 12.717717 -6.420163 -4.136139
v 13.830982 -6.721895 -4.247591
v 14.984307 -6.936760 -4.335169
v 16.175358 -7.097304 -4.127155
v 17.401806 -7.236076 -4.194688
v 18.661322 -7.385623 -4.266048
v 19.951567 -7.578494 -4.350470
v 21.270218 -7.847236 -4.457187
v 22.614939 -6.161742 11.187566
v -29.216049 19.851006 -3.917235
v -29.019943 19.567471 -3.917235
v -28.849957 19.285299 -3.917235
v -28.699100 19.006338 -3.917235
v -28.560389 18.732437 -3.917236
v -28.426830 18.465446 -3.917236
v -28.291433 18.207218 -3.917236
v -28.147215 17.959597 -3.917236
v -27.987183 17.724434 -3.917236
v -27.804348 17.503584 -3.917236
v -27.591722 17.298891 -3.917236
v -27.342318 17.112207 -3.917236
v -27.049143 16.945381 -3.917236
v -26.196659 16.610836 -3.917236
v -25.368990 16.440632 -3.917236
v -24.560194 16.404387 -3.917236
v -23.764334 16.471714 -3.917236
v -22.975470 16.612236 -3.917236
v -22.187660 16.795565 -3.917236
v -21.394966 16.991322 -3.917236
v -20.591448 17.169125 -3.917236
v -19.771162 17.298588 -3.917236
v -18.928173 17.349331 -3.917236
v -18.056540 17.290970 -3.917236
v -17.150320 17.093122 -3.917236
v -15.821552 16.663864 -3.919440
v -14.590495 16.202211 -3.925250
v -13.444787 15.703479 -3.933465
v -12.372069 15.162972 -3.942881
v -11.359980 14.576001 -3.952297
v -10.396158 13.937873 -3.960511
v -9.468243 13.243902 -3.966321
v -8.188645 11.514900 -3.968525
v -7.533460 10.494862 -3.965921
v -6.894930 9.406905 -3.957307
v -6.262296 8.243352 -3.941480
v -5.080312 5.961441 -3.917238
v -4.323820 4.739195 -3.904336
v -3.622368 3.721495 -3.895912
v -2.960083 2.785693 -3.891327
v -2.226499 1.590656 -3.889941
v -1.416524 0.402187 -3.891114
v -0.525068 -0.817378 -3.894207
v 0.452959 -2.029836 -3.898579
v 1.522650 -3.196987 -3.903591
v 2.689094 -4.280628 -3.908603
v 3.957381 -5.242556 -3.912976
v 5.332604 -6.044569 -3.916068
v 6.819851 -6.648464 -3.917241
v 8.234837 -7.066280 -3.908852
v 9.658238 -7.414032 -3.886736
v 11.077954 -7.677413 -3.855468
v 12.481882 -7.842116 -3.819625
v 13.857921 -7.893837 -3.783781
v 15.193969 -7.818266 -3.752513
v 16.477924 -7.601099 -3.730397
v 17.697681 -7.228029 -3.722008
v 18.841143 -6.599385 -3.731922
v 19.003349 -6.506789 -3.784510
v 19.803202 -5.754738 -3.834993
v 20.508696 -4.799709 -3.912316
v 20.969431 -3.923568 -3.978437
v 21.290243 -3.008275 -4.030762
v 21.475414 -2.068347 -4.074523
v 21.529221 -1.118303 -4.114955
v 21.455942 -0.172659 -4.157289
v 21.259853 0.754068 -4.206759
v 20.945232 1.647358 -4.268597
v 20.516357 2.492697 -4.348038
v 19.977503 3.275565 -4.450313
v 19.332952 3.981446 -4.580655
v 18.586977 4.595823 -4.744299
v 17.743860 5.104177 -4.946477
v 16.978338 5.420677 -5.121243
v 16.208015 5.605261 -5.268415
v 15.438945 5.665984 -5.394724
v 14.677190 5.610902 -5.506900
v 13.928802 5.418428 -5.611676
v 13.199839 5.096615 -5.715783
v 12.496358 4.671881 -5.825952
v 11.824414 4.234137 -5.948914
v 11.190066 3.720863 -6.091401
v 10.599369 3.140120 -6.260143
v 10.058380 2.499960 -6.461874
v 9.573154 1.808442 -6.703323
v 9.261034 1.259898 -6.895252
v 9.017624 0.704401 -7.071564
v 8.841586 0.143946 -7.235466
v 8.731585 -0.419472 -7.390168
v 8.686279 -0.983858 -7.538877
v 8.704335 -1.387717 -7.684803
v 8.784414 -1.948057 -7.831152
v 8.925179 -2.503383 -7.981133
v 9.125293 -3.051699 -8.137958
v 9.383417 -3.591011 -8.304829
v 9.698215 -4.119325 -8.484957
v 10.068349 -4.634646 -8.681552
v 10.809883 -5.451361 -9.027836
v 11.770206 -5.995365 -9.566663
v 12.630051 -6.248516 -9.938443
v 13.361059 -6.420163 -10.273232
v 14.474324 -6.721895 -10.384684
v 15.627648 -6.936760 -10.472263
v 16.818699 -7.097304 -10.545201
v 18.045149 -7.236076 -10.612734
v 19.304663 -7.385623 -10.684093
v 20.594910 -7.578494 -10.768516
v 21.913561 -7.847236 -10.875234
v 23.258280 -6.161742 -28.113447
v 31.208755 -6.614685 11.187566
v 31.852097 -6.614685 -28.113447
v 35.812065 -5.059180 11.187566
v 36.455402 -5.059180 -28.113447
v 22.936642 -8.223707 -8.462938
v 31.530428 -8.224398 -8.462941
v 26.939226 -6.836833 11.189040
v 27.585340 -6.831817 -28.111795
v 36.133736 -6.034772 -8.462941
v 33.526974 -6.625986 11.188483
v 34.170315 -6.621891 -28.112530
v 27.262335 -8.443693 -8.461373
v 33.848656 -7.599530 -8.462024
v 22.775082 -8.227754 1.362247
v 31.369589 -8.224384 1.362312
v 24.775990 -6.409801 11.188211
v 29.729483 -6.820873 -28.112041
v 35.972900 -6.034772 1.362312
v 32.378338 -6.626848 11.188594
v 35.317501 -6.218204 -28.112736
v 23.098232 -8.219879 -18.288122
v 31.691259 -8.224385 -18.288193
v 29.083920 -6.822206 11.188829
v 25.421198 -6.403328 -28.112671
v 36.294571 -6.034772 -18.288193
v 34.674385 -6.221092 11.188292
v 33.021721 -6.623931 -28.112415
v 25.088135 -8.435426 -8.463208
v 29.406733 -8.431063 -8.461602
v 27.423838 -8.442562 -18.286585
v 27.100780 -8.445068 1.363833
v 32.700039 -7.963346 -8.461911
v 34.995945 -7.195232 -8.462222
v 34.009487 -7.598507 -18.287277
v 33.687817 -7.600554 1.363230
v 24.932856 -8.410700 1.362592
v 32.539188 -7.964064 1.363342
v 25.256556 -8.403558 -18.287743
v 29.568108 -8.430793 -18.286823
v 29.245325 -8.431458 1.363614
v 32.860878 -7.962606 -18.287163
v 35.156727 -7.194515 -18.287477
v 34.835167 -7.195958 1.363035
vn 0.821006 0.570744 -0.014168
vn 0.494569 0.869138 0.000000
vn 0.351128 0.936328 0.000000
vn 0.307407 0.951578 0.000000
vn 0.230517 -0.973062 0.003348
vn 0.541582 -0.840072 0.031102
vn 0.843219 0.537570 0.000001
vn -0.175371 0.984502 0.000000
vn 0.148779 0.988758 0.014914
vn 0.184534 0.982636 0.019344
vn -0.216054 0.976381 0.000000
vn 0.894343 0.447382 0.000000
vn -0.239749 0.970835 0.000000
vn 0.743214 0.668978 -0.010066
vn 0.201222 0.979338 0.020170
vn 0.803812 0.594884 0.000000
vn 0.770288 0.637697 0.000000
vn -0.996568 -0.078413 -0.026539
vn 0.996726 -0.080799 0.002991
vn -0.985988 0.166278 -0.013383
vn 0.201428 0.979503 0.000000
vn -0.050588 0.998541 -0.018910
vn -0.532219 0.846604 -0.002296
vn 0.501692 0.865046 0.000000
vn 0.999296 0.037519 -0.000695
vn 0.523749 0.851730 -0.015593
vn -0.382076 -0.924131 0.000000
vn -0.980253 -0.195937 -0.026695
vn 0.365313 0.930885 0.000000
vn 0.989942 0.141474 0.000000
vn -0.084296 0.996441 0.000000
vn 0.072121 -0.997396 0.000000
vn 0.143488 0.989272 -0.027436
vn -0.078712 -0.996897 0.000000
vn 0.624824 -0.780231 0.028886
vn 0.825995 0.563676 0.001464
vn 0.823498 0.567279 -0.006757
vn 0.118561 0.992876 0.011885
vn -0.663271 -0.748171 -0.017646
vn 0.862434 0.506169 0.000000
vn 0.869481 0.480440 0.114802
vn 0.333162 0.942851 0.005847
vn 0.285148 0.958057 0.028583
vn 0.229913 0.973202 0.004181
vn 0.701548 0.699588 -0.135671
vn 0.878539 0.477670 0.000000
vn 0.113041 0.993526 0.011331
vn 0.859060 0.511875 0.000000
vn 0.981072 -0.193511 0.007164
vn 0.237626 0.971024 -0.025415
vn -0.155897 0.987773 0.000000
vn -0.821284 -0.569577 -0.032776
vn 0.740361 0.672209 0.000000
vn 0.399129 0.916895 0.000000
vn 0.841386 0.540435 0.000000
vn 0.449974 0.893042 0.000000
vn 0.866209 -0.499339 0.018487
vn 0.038081 0.999068 -0.020336
vn -0.226651 0.973976 0.000000
vn 0.864124 0.503279 0.000000
vn -0.166456 0.985898 -0.017272
vn 0.370427 -0.928774 0.012781
vn 0.856575 0.516022 0.000000
vn 0.853881 0.520281 -0.013935
vn 0.902009 0.431718 0.000000
vn 0.264076 0.964104 0.027683
vn -0.942459 -0.333530 -0.022997
vn -0.910974 0.412458 -0.002293
vn 0.892121 0.451797 0.000000
vn 0.914064 -0.405291 0.015005
vn -0.875914 -0.481645 -0.028165
vn 0.939394 0.342841 0.000000
vn 0.552051 0.833811 0.000000
vn 0.132814 0.991048 0.013611
vn 0.170187 0.984926 -0.030933
vn 0.826728 0.562602 0.000000
vn 0.759818 -0.649691 0.024053
vn -0.233023 -0.972471 0.000000
vn 0.812205 0.583373 0.000000
vn -0.456094 0.889894 -0.008203
vn -0.942439 0.334190 -0.011241
vn 0.609131 0.792802 -0.020618
vn 0.814860 -0.579261 0.021446
vn 0.696962 -0.716617 0.026531
vn 0.840139 0.542349 -0.004898
vn -0.292335 0.956169 -0.016751
vn 0.693540 0.720418 0.000000
vn 0.885642 0.464369 0.000000
vn 0.599240 0.800570 0.000000
vn 0.881241 0.472612 -0.007200
vn 0.364374 0.931088 -0.017512
vn 0.283241 0.958747 -0.024061
vn 0.953044 -0.302626 0.011204
vn 0.822447 0.568842 0.000000
vn -0.998195 0.055564 -0.022783
vn 0.598913 0.800814 0.000000
vn 0.688807 0.724629 -0.021385
vn -0.735436 -0.676958 -0.029349
vn 0.481150 -0.876274 0.025265
vn 0.239091 0.970673 0.025103
vn -0.719331 0.694648 -0.005160
vn -0.797639 0.603107 -0.005706
vn 0.545650 0.837915 0.012795
vn -0.528854 -0.848706 -0.003518
vn 0.360655 0.932359 0.025186
vn 0.879619 0.475679 0.000000
vn 0.066806 0.997766 0.000000
vn 0.044769 0.998997 0.000000
vn 0.213298 0.976987 0.000000
vn 0.969343 0.245711 0.000000
vn 0.743165 0.668692 -0.023580
vn -0.060086 0.998193 0.000000
vn 0.097339 0.974909 -0.200194
vn -0.104185 0.983308 -0.149169
vn 0.091359 0.995812 0.003343
vn -0.005689 0.999984 -0.000022
vn -0.006513 0.986821 -0.161685
vn -0.218119 0.975916 -0.003533
vn -0.332252 0.943176 -0.005354
vn -0.331061 0.938452 -0.098518
vn 0.091203 0.995832 0.000423
vn 0.009819 0.999951 -0.001030
vn 0.104323 0.978481 -0.178021
vn -0.217542 0.976045 -0.003526
vn -0.301837 0.953347 -0.004857
vn -0.155571 0.980760 -0.117928
vn 0.095850 0.974508 0.202849
vn 0.105442 0.977736 0.181422
vn 0.010886 0.999939 0.001862
vn -0.005208 0.986834 0.161654
vn -0.095382 0.982591 0.159428
vn -0.096810 0.995302 -0.001573
vn -0.006118 0.999981 -0.000010
vn -0.096939 0.995289 -0.001570
vn -0.095919 0.982045 -0.162442
vn -0.106311 0.983580 0.145837
vn -0.156379 0.981206 0.113049
vn -0.302062 0.953276 -0.004859
vn -0.330744 0.939612 0.087968
vn -0.712485 0.699302 0.057802
vn -0.713885 0.700165 -0.011659
vn -0.332458 0.943103 -0.005357
vn -0.714120 0.699926 -0.011662
vn -0.712086 0.697419 -0.080879
usemtl Material
s off
f 147//1 38//1 39//1
f 147//1 39//1 148//1
f 121//2 12//2 13//2
f 121//2 13//2 122//2
f 135//3 26//3 27//3
f 135//3 27//3 136//3
f 134//4 25//4 26//4
f 134//4 26//4 135//4
f 186//5 77//5 78//5
f 186//5 78//5 187//5
f 189//6 80//6 81//6
f 189//6 81//6 190//6
f 149//7 40//7 41//7
f 149//7 41//7 150//7
f 126//8 17//8 18//8
f 126//8 18//8 127//8
f 215//9 106//9 107//9
f 215//9 107//9 216//9
f 211//10 102//10 103//10
f 211//10 103//10 212//10
f 129//11 20//11 21//11
f 129//11 21//11 130//11
f 114//12 5//12 6//12
f 114//12 6//12 115//12
f 128//13 19//13 20//13
f 128//13 20//13 129//13
f 152//14 43//14 44//14
f 152//14 44//14 153//14
f 216//15 107//15 108//15
f 216//15 108//15 217//15
f 141//16 32//16 33//16
f 141//16 33//16 142//16
f 118//17 9//17 10//17
f 118//17 10//17 119//17
f 174//18 65//18 66//18
f 174//18 66//18 175//18
f 198//19 89//19 90//19
f 198//19 90//19 199//19
f 172//20 63//20 64//20
f 172//20 64//20 173//20
f 123//21 14//21 15//21
f 123//21 15//21 124//21
f 163//22 54//22 55//22
f 163//22 55//22 164//22
f 167//23 58//23 59//23
f 167//23 59//23 168//23
f 138//24 29//24 30//24
f 138//24 30//24 139//24
f 199//25 90//25 91//25
f 199//25 91//25 200//25
f 156//26 47//26 48//26
f 156//26 48//26 157//26
f 182//27 73//27 74//27
f 182//27 74//27 183//27
f 175//28 66//28 67//28
f 175//28 67//28 176//28
f 122//29 13//29 14//29
f 122//29 14//29 123//29
f 200//30 91//30 92//30
f 200//30 92//30 201//30
f 125//31 16//31 17//31
f 125//31 17//31 126//31
f 185//32 76//32 77//32
f 185//32 77//32 186//32
f 161//33 52//33 53//33
f 161//33 53//33 162//33
f 184//34 75//34 76//34
f 184//34 76//34 185//34
f 190//35 81//35 82//35
f 190//35 82//35 191//35
f 151//36 42//36 43//36
f 151//36 43//36 152//36
f 150//37 41//37 42//37
f 150//37 42//37 151//37
f 214//38 105//38 106//38
f 214//38 106//38 215//38
f 180//39 71//39 72//39
f 180//39 72//39 181//39
f 143//40 34//40 35//40
f 143//40 35//40 144//40
f 217//41 239//41 218//41
f 217//42 223//42 239//42
f 217//43 108//43 223//43
f 108//44 232//44 223//44
f 108//45 109//45 232//45
f 144//46 35//46 36//46
f 144//46 36//46 145//46
f 213//47 104//47 105//47
f 213//47 105//47 214//47
f 204//48 95//48 96//48
f 204//48 96//48 205//48
f 197//49 88//49 89//49
f 197//49 89//49 198//49
f 159//50 50//50 51//50
f 159//50 51//50 160//50
f 130//51 21//51 22//51
f 130//51 22//51 131//51
f 178//52 69//52 70//52
f 178//52 70//52 179//52
f 206//53 97//53 98//53
f 206//53 98//53 207//53
f 136//54 27//54 28//54
f 136//54 28//54 137//54
f 142//55 33//55 34//55
f 142//55 34//55 143//55
f 137//56 28//56 29//56
f 137//56 29//56 138//56
f 194//57 85//57 86//57
f 194//57 86//57 195//57
f 162//58 53//58 54//58
f 162//58 54//58 163//58
f 127//59 18//59 19//59
f 127//59 19//59 128//59
f 116//60 7//60 8//60
f 116//60 8//60 117//60
f 164//61 55//61 56//61
f 164//61 56//61 165//61
f 187//62 78//62 79//62
f 187//62 79//62 188//62
f 111//63 2//63 3//63
f 111//63 3//63 112//63
f 146//64 37//64 38//64
f 146//64 38//64 147//64
f 203//65 94//65 95//65
f 203//65 95//65 204//65
f 210//66 101//66 102//66
f 210//66 102//66 211//66
f 176//67 67//67 68//67
f 176//67 68//67 177//67
f 170//68 61//68 62//68
f 170//68 62//68 171//68
f 113//69 4//69 5//69
f 113//69 5//69 114//69
f 195//70 86//70 87//70
f 195//70 87//70 196//70
f 177//71 68//71 69//71
f 177//71 69//71 178//71
f 202//72 93//72 94//72
f 202//72 94//72 203//72
f 139//73 30//73 31//73
f 139//73 31//73 140//73
f 212//74 103//74 104//74
f 212//74 104//74 213//74
f 160//75 51//75 52//75
f 160//75 52//75 161//75
f 117//76 8//76 9//76
f 117//76 9//76 118//76
f 192//77 83//77 84//77
f 192//77 84//77 193//77
f 183//78 74//78 75//78
f 183//78 75//78 184//78
f 205//79 96//79 97//79
f 205//79 97//79 206//79
f 166//80 57//80 58//80
f 166//80 58//80 167//80
f 171//81 62//81 63//81
f 171//81 63//81 172//81
f 155//82 46//82 47//82
f 155//82 47//82 156//82
f 193//83 84//83 85//83
f 193//83 85//83 194//83
f 191//84 82//84 83//84
f 191//84 83//84 192//84
f 148//85 39//85 40//85
f 148//85 40//85 149//85
f 165//86 56//86 57//86
f 165//86 57//86 166//86
f 119//87 10//87 11//87
f 119//87 11//87 120//87
f 115//88 6//88 7//88
f 115//88 7//88 116//88
f 120//89 11//89 12//89
f 120//89 12//89 121//89
f 145//90 36//90 37//90
f 145//90 37//90 146//90
f 157//91 48//91 49//91
f 157//91 49//91 158//91
f 158//92 49//92 50//92
f 158//92 50//92 159//92
f 196//93 87//93 88//93
f 196//93 88//93 197//93
f 110//94 1//94 2//94
f 110//94 2//94 111//94
f 173//95 64//95 65//95
f 173//95 65//95 174//95
f 140//96 31//96 32//96
f 140//96 32//96 141//96
f 154//97 45//97 46//97
f 154//97 46//97 155//97
f 179//98 70//98 71//98
f 179//98 71//98 180//98
f 188//99 79//99 80//99
f 188//99 80//99 189//99
f 209//100 100//100 101//100
f 209//100 101//100 210//100
f 168//101 59//101 60//101
f 168//101 60//101 169//101
f 169//102 60//102 61//102
f 169//102 61//102 170//102
f 207//103 98//103 99//103
f 207//103 99//103 208//103
f 181//104 72//104 73//104
f 181//104 73//104 182//104
f 208//105 99//105 100//105
f 208//105 100//105 209//105
f 112//106 3//106 4//106
f 112//106 4//106 113//106
f 132//107 23//107 24//107
f 132//107 24//107 133//107
f 124//108 15//108 16//108
f 124//108 16//108 125//108
f 133//109 24//109 25//109
f 133//109 25//109 134//109
f 201//110 92//110 93//110
f 201//110 93//110 202//110
f 153//111 44//111 45//111
f 153//111 45//111 154//111
f 131//112 22//112 23//112
f 131//112 23//112 132//112
f 254//113 232//113 109//113
f 254//113 109//113 234//113
f 255//114 233//114 219//114
f 255//114 219//114 237//114
f 256//115 239//115 223//115
f 256//115 223//115 246//115
f 257//116 248//116 230//116
f 257//116 230//116 247//116
f 258//117 249//117 225//117
f 258//117 225//117 241//117
f 259//118 240//118 224//118
f 259//118 224//118 250//118
f 260//119 252//119 231//119
f 260//119 231//119 251//119
f 261//120 253//120 228//120
f 261//120 228//120 244//120
f 246//121 223//121 232//121
f 246//121 232//121 254//121
f 230//122 246//122 254//122
f 230//122 254//122 249//122
f 249//123 254//123 234//123
f 249//123 234//123 225//123
f 250//124 224//124 233//124
f 250//124 233//124 255//124
f 231//125 250//125 255//125
f 231//125 255//125 253//125
f 253//126 255//126 237//126
f 253//126 237//126 228//126
f 242//127 218//127 239//127
f 242//127 239//127 256//127
f 226//128 242//128 256//128
f 226//128 256//128 248//128
f 248//129 256//129 246//129
f 248//129 246//129 230//129
f 235//130 226//130 248//130
f 235//130 248//130 257//130
f 220//131 235//131 257//131
f 220//131 257//131 240//131
f 240//132 257//132 247//132
f 240//132 247//132 224//132
f 247//133 230//133 249//133
f 247//133 249//133 258//133
f 224//134 247//134 258//134
f 224//134 258//134 233//134
f 233//135 258//135 241//135
f 233//135 241//135 219//135
f 245//136 220//136 240//136
f 245//136 240//136 259//136
f 229//137 245//137 259//137
f 229//137 259//137 252//137
f 252//138 259//138 250//138
f 252//138 250//138 231//138
f 238//139 229//139 252//139
f 238//139 252//139 260//139
f 222//140 238//140 260//140
f 222//140 260//140 243//140
f 243//141 260//141 251//141
f 243//141 251//141 227//141
f 251//142 231//142 253//142
f 251//142 253//142 261//142
f 227//143 251//143 261//143
f 227//143 261//143 236//143
f 236//144 261//144 244//144
f 236//144 244//144 221//144
