dim 65.67145 28.296074 39.302486
# Blender v2.63 (sub 0) OBJ File: 'loop.blend'
# www.blender.org
mtllib loop.mtl
o BezierCurve_Mesh
v -32.835724 14.148037 9.6864605
v -32.639618 13.864502 9.6864605
v -32.46963 13.582331 9.6864605
v -32.318775 13.3033695 9.6864605
v -32.18006 13.029469 9.6864605
v -32.046505 12.762478 9.686459
v -31.911108 12.50425 9.686459
v -31.76689 12.256628 9.686459
v -31.606857 12.021465 9.686459
v -31.424023 11.800615 9.686459
v -31.211397 11.595922 9.686459
v -30.961992 11.409239 9.686459
v -30.668818 11.242413 9.686459
v -29.816334 10.907867 9.686459
v -28.988665 10.737663 9.686459
v -28.179869 10.701418 9.686459
v -27.384008 10.768745 9.686459
v -26.595144 10.909267 9.686459
v -25.807335 11.092596 9.686459
v -25.01464 11.288353 9.686459
v -24.211123 11.466156 9.686459
v -23.390837 11.595619 9.686459
v -22.547848 11.646362 9.686459
v -21.676214 11.588001 9.686459
v -20.769995 11.390154 9.686459
v -19.441227 10.960896 9.684255
v -18.21017 10.499243 9.678445
v -17.06446 10.00051 9.670231
v -15.991744 9.460004 9.660815
v -14.979654 8.873033 9.651398
v -14.015833 8.234904 9.643184
v -13.087917 7.5409336 9.637374
v -11.80832 5.8119316 9.63517
v -11.153135 4.791893 9.6377735
v -10.514605 3.7039366 9.646389
v -9.881971 2.5403833 9.662216
v -8.699986 0.4151373 9.686457
v -7.943495 -0.8450208 9.69936
v -7.2420425 -1.8449585 9.707783
v -6.6161747 -2.9045186 9.712368
v -5.8825893 -4.0108485 9.713754
v -5.0726147 -5.1740274 9.712581
v -4.2904077 -6.4069867 9.709489
v -3.2759638 -7.4082327 9.705116
v -2.2062726 -8.619083 9.700104
v -1.0398297 -9.753302 9.695092
v 0.2284584 -10.74052 9.69072
v 1.6036811 -11.629932 9.687627
v 3.0909286 -12.190127 9.686454
v 4.5059137 -12.607944 9.694843
v 5.9293156 -12.955694 9.716959
v 7.4582796 -13.199857 9.748227
v 8.862207 -13.440429 9.784071
v 10.238246 -13.492147 9.819914
v 11.574294 -13.43116 9.851182
v 12.85825 -13.213993 9.873299
v 14.078007 -12.840923 9.881688
v 15.221468 -12.297642 9.871774
v 15.536243 -12.091381 9.5556755
v 16.3361 -11.189722 9.223773
v 17.041594 -10.282841 8.858089
v 17.362488 -9.433374 8.791969
v 17.651405 -8.632706 8.739643
v 17.750614 -7.8933716 8.695882
v 17.80442 -6.9433274 8.655451
v 17.731142 -5.9976835 8.613117
v 17.535053 -4.9489007 8.563647
v 17.220432 -4.0556107 8.501809
v 16.72475 -3.2102716 8.422368
v 16.1859 -2.4274037 8.320093
v 15.5413475 -1.7215226 8.18975
v 14.909992 -1.1071458 8.026106
v 14.124186 -0.5987916 7.823929
v 13.358664 -0.2822914 7.649162
v 12.588341 -0.09770775 7.50199
v 11.81927 -0.036984444 7.375682
v 11.057515 -0.092066765 7.263505
v 10.309127 -0.2548976 7.158729
v 9.580164 -0.5174217 7.054623
v 8.876683 -0.8715844 6.944454
v 8.20474 -1.3093295 6.821492
v 7.5703917 -1.8226025 6.679005
v 6.9796944 -2.4033465 6.510262
v 6.4387054 -3.0435057 6.3085318
v 5.95348 -3.7350235 6.067082
v 5.6413593 -4.2835684 5.875154
v 5.397949 -4.8390646 5.698842
v 5.2219114 -5.3995194 5.53494
v 5.11191 -5.9629374 5.380238
v 5.0666046 -6.5273247 5.231529
v 5.0846605 -7.090686 5.0856028
v 5.1647396 -7.651026 4.939253
v 5.305504 -8.206351 4.7892723
v 5.505618 -8.754667 4.632449
v 5.7637424 -9.29398 4.465577
v 6.07854 -9.822294 4.285448
v 6.448674 -10.337614 4.088853
v 7.1902084 -11.154329 4.223634
v 7.8445444 -11.652361 4.144851
v 8.471302 -11.966623 4.234077
v 9.0980425 -12.123132 4.326065
v 10.211308 -12.424864 4.214613
v 11.364633 -12.639729 4.127035
v 12.555683 -12.800272 4.335049
v 13.782131 -12.939045 4.267516
v 15.041647 -13.088592 4.196156
v 16.331892 -13.281463 4.111734
v 17.650543 -13.550205 4.005017
v 18.995264 -11.864711 19.649769
v -32.835724 14.148037 4.544969
v -32.639618 13.864502 4.544969
v -32.46963 13.582331 4.544969
v -32.318775 13.3033695 4.544969
v -32.18006 13.029469 4.5449677
v -32.046505 12.762478 4.5449677
v -31.911108 12.50425 4.5449677
v -31.76689 12.256628 4.5449677
v -31.606857 12.021465 4.5449677
v -31.424023 11.800615 4.5449677
v -31.211397 11.595922 4.5449677
v -30.961992 11.409239 4.5449677
v -30.668818 11.242413 4.5449677
v -29.816334 10.907867 4.5449677
v -28.988665 10.737663 4.5449677
v -28.179869 10.701418 4.5449677
v -27.384008 10.768745 4.5449677
v -26.595144 10.909267 4.5449677
v -25.807335 11.092596 4.5449677
v -25.01464 11.288353 4.5449677
v -24.211123 11.466156 4.5449677
v -23.390837 11.595619 4.5449677
v -22.547848 11.646362 4.5449677
v -21.676214 11.588001 4.5449677
v -20.769995 11.390154 4.5449677
v -19.441227 10.960896 4.5427637
v -18.21017 10.499243 4.536954
v -17.06446 10.00051 4.528739
v -15.991744 9.460004 4.519323
v -14.979654 8.873033 4.509907
v -14.015833 8.234904 4.501693
v -13.087917 7.5409336 4.495883
v -11.80832 5.8119316 4.493679
v -11.153135 4.791893 4.496283
v -10.514605 3.7039366 4.504897
v -9.881971 2.5403833 4.5207243
v -8.699986 0.25847244 4.5449657
v -7.943495 -0.9637737 4.557868
v -7.2420425 -1.9814737 4.566292
v -6.5797577 -2.9172757 4.570877
v -5.846174 -4.1123123 4.572263
v -5.0361986 -5.3007817 4.5710897
v -4.1447425 -6.5203466 4.567997
v -3.1667156 -7.7328043 4.5636253
v -2.0970247 -8.899956 4.558613
v -0.9305806 -9.983597 4.5536013
v 0.33770633 -10.945524 4.5492277
v 1.7129292 -11.747538 4.546136
v 3.2001762 -12.351433 4.544963
v 4.615162 -12.769249 4.553352
v 6.0385637 -13.117001 4.575468
v 7.4582796 -13.380382 4.606736
v 8.862207 -13.545084 4.642579
v 10.238246 -13.596806 4.678423
v 11.574294 -13.5212345 4.709691
v 12.85825 -13.304068 4.7318068
v 14.078007 -12.930998 4.740196
v 15.221468 -12.302353 4.730282
v 15.383675 -12.209758 4.6776943
v 16.183527 -11.457706 4.627211
v 16.88902 -10.502678 4.5498877
v 17.349756 -9.626536 4.483767
v 17.670568 -8.711244 4.431442
v 17.85574 -7.7713156 4.387681
v 17.909546 -6.8212714 4.347249
v 17.836267 -5.8756275 4.304915
v 17.640179 -4.9489007 4.255445
v 17.325558 -4.0556107 4.193607
v 16.896683 -3.2102716 4.114166
v 16.357828 -2.4274037 4.011891
v 15.713278 -1.7215226 3.881549
v 14.967302 -1.1071458 3.717905
v 14.124186 -0.5987916 3.515727
v 13.358664 -0.2822914 3.340961
v 12.588341 -0.09770775 3.193789
v 11.81927 -0.036984444 3.06748
v 11.057515 -0.092066765 2.9553041
v 10.309127 -0.28454065 2.8505278
v 9.580164 -0.60635376 2.7464209
v 8.876683 -1.0310874 2.636252
v 8.20474 -1.4688315 2.51329
v 7.5703917 -1.9821055 2.3708029
v 6.9796944 -2.5628486 2.2020612
v 6.4387054 -3.2030087 2.00033
v 5.95348 -3.8945265 1.7588811
v 5.6413593 -4.4430704 1.5669518
v 5.397949 -4.9985676 1.3906398
v 5.2219114 -5.5590224 1.226738
v 5.11191 -6.122441 1.0720358
v 5.0666046 -6.6868267 0.92332697
v 5.0846605 -7.090686 0.777401
v 5.1647396 -7.651026 0.631052
v 5.305504 -8.206351 0.481071
v 5.505618 -8.754667 0.3242464
v 5.7637424 -9.29398 0.15737534
v 6.07854 -9.822294 -0.022752762
v 6.448674 -10.337614 -0.21934795
v 7.1902084 -11.154329 -0.56563187
v 8.150532 -11.698334 -1.1044588
v 9.010376 -11.951485 -1.4762392
v 9.7413845 -12.123132 -1.8110285
v 10.85465 -12.424864 -1.9224796
v 12.007974 -12.639729 -2.0100594
v 13.199024 -12.800272 -2.0829973
v 14.425474 -12.939045 -2.1505299
v 15.684988 -13.088592 -2.2218895
v 16.975235 -13.281463 -2.3063116
v 18.293886 -13.550205 -2.4130297
v 19.638605 -11.864711 -19.651243
v 27.58908 -12.317654 19.649769
v 28.232422 -12.317654 -19.651243
v 32.19239 -10.762148 19.649769
v 32.835728 -10.762148 -19.651243
v 19.316967 -13.926676 -7.343292E-4
v 27.910753 -13.927366 -7.3719025E-4
v 23.319551 -12.539802 19.651245
v 23.965666 -12.534786 -19.649591
v 32.51406 -11.7377405 -7.3719025E-4
v 29.907299 -12.328955 19.650688
v 30.55064 -12.32486 -19.650326
v 23.64266 -14.146662 8.3065033E-4
v 30.228981 -13.302499 1.8024445E-4
v 19.155407 -13.930722 9.824451
v 27.749914 -13.927353 9.824516
v 21.156315 -12.11277 19.650415
v 26.109808 -12.523842 -19.649837
v 32.353226 -11.7377405 9.824516
v 28.758663 -12.329817 19.650799
v 31.697826 -11.921173 -19.650532
v 19.478558 -13.922848 -9.825918
v 28.071585 -13.927354 -9.825989
v 25.464245 -12.525175 19.651033
v 21.801523 -12.106297 -19.650467
v 32.674896 -11.7377405 -9.825989
v 31.05471 -11.924061 19.650496
v 29.402046 -12.3269 -19.650211
v 21.46846 -14.138394 -0.001004219
v 25.787058 -14.134031 6.017685E-4
v 23.804163 -14.145531 -9.824381
v 23.481106 -14.148037 9.826036
v 29.080364 -13.666315 2.9277802E-4
v 31.37627 -12.898201 -1.8119812E-5
v 30.389812 -13.301476 -9.825073
v 30.068142 -13.303522 9.825434
v 21.31318 -14.113668 9.824796
v 28.919514 -13.667032 9.825546
v 21.63688 -14.106526 -9.825539
v 25.948433 -14.133761 -9.824619
v 25.62565 -14.134427 9.825818
v 29.241203 -13.665575 -9.824959
v 31.537052 -12.897484 -9.8252735
v 31.215492 -12.898927 9.825239
vn 0.821006 0.570744 -0.014168
vn 0.494569 0.869138 0.000000
vn 0.351128 0.936328 0.000000
vn 0.307407 0.951578 0.000000
vn 0.230517 -0.973062 0.003348
vn 0.541582 -0.840072 0.031102
vn 0.843219 0.537570 0.000001
vn -0.175371 0.984502 0.000000
vn 0.148779 0.988758 0.014914
vn 0.184534 0.982636 0.019344
vn -0.216054 0.976381 0.000000
vn 0.894343 0.447382 0.000000
vn -0.239749 0.970835 0.000000
vn 0.743214 0.668978 -0.010066
vn 0.201222 0.979338 0.020170
vn 0.803812 0.594884 0.000000
vn 0.770288 0.637697 0.000000
vn -0.996568 -0.078413 -0.026539
vn 0.996726 -0.080799 0.002991
vn -0.985988 0.166278 -0.013383
vn 0.201428 0.979503 0.000000
vn -0.050588 0.998541 -0.018910
vn -0.532219 0.846604 -0.002296
vn 0.501692 0.865046 0.000000
vn 0.999296 0.037519 -0.000695
vn 0.523749 0.851730 -0.015593
vn -0.382076 -0.924131 0.000000
vn -0.980253 -0.195937 -0.026695
vn 0.365313 0.930885 0.000000
vn 0.989942 0.141474 0.000000
vn -0.084296 0.996441 0.000000
vn 0.072121 -0.997396 0.000000
vn 0.143488 0.989272 -0.027436
vn -0.078712 -0.996897 0.000000
vn 0.624824 -0.780231 0.028886
vn 0.825995 0.563676 0.001464
vn 0.823498 0.567279 -0.006757
vn 0.118561 0.992876 0.011885
vn -0.663271 -0.748171 -0.017646
vn 0.862434 0.506169 0.000000
vn 0.869481 0.480440 0.114802
vn 0.333162 0.942851 0.005847
vn 0.285148 0.958057 0.028583
vn 0.229913 0.973202 0.004181
vn 0.701548 0.699588 -0.135671
vn 0.878539 0.477670 0.000000
vn 0.113041 0.993526 0.011331
vn 0.859060 0.511875 0.000000
vn 0.981072 -0.193511 0.007164
vn 0.237626 0.971024 -0.025415
vn -0.155897 0.987773 0.000000
vn -0.821284 -0.569577 -0.032776
vn 0.740361 0.672209 0.000000
vn 0.399129 0.916895 0.000000
vn 0.841386 0.540435 0.000000
vn 0.449974 0.893042 0.000000
vn 0.866209 -0.499339 0.018487
vn 0.038081 0.999068 -0.020336
vn -0.226651 0.973976 0.000000
vn 0.864124 0.503279 0.000000
vn -0.166456 0.985898 -0.017272
vn 0.370427 -0.928774 0.012781
vn 0.856575 0.516022 0.000000
vn 0.853881 0.520281 -0.013935
vn 0.902009 0.431718 0.000000
vn 0.264076 0.964104 0.027683
vn -0.942459 -0.333530 -0.022997
vn -0.910974 0.412458 -0.002293
vn 0.892121 0.451797 0.000000
vn 0.914064 -0.405291 0.015005
vn -0.875914 -0.481645 -0.028165
vn 0.939394 0.342841 0.000000
vn 0.552051 0.833811 0.000000
vn 0.132814 0.991048 0.013611
vn 0.170187 0.984926 -0.030933
vn 0.826728 0.562602 0.000000
vn 0.759818 -0.649691 0.024053
vn -0.233023 -0.972471 0.000000
vn 0.812205 0.583373 0.000000
vn -0.456094 0.889894 -0.008203
vn -0.942439 0.334190 -0.011241
vn 0.609131 0.792802 -0.020618
vn 0.814860 -0.579261 0.021446
vn 0.696962 -0.716617 0.026531
vn 0.840139 0.542349 -0.004898
vn -0.292335 0.956169 -0.016751
vn 0.693540 0.720418 0.000000
vn 0.885642 0.464369 0.000000
vn 0.599240 0.800570 0.000000
vn 0.881241 0.472612 -0.007200
vn 0.364374 0.931088 -0.017512
vn 0.283241 0.958747 -0.024061
vn 0.953044 -0.302626 0.011204
vn 0.822447 0.568842 0.000000
vn -0.998195 0.055564 -0.022783
vn 0.598913 0.800814 0.000000
vn 0.688807 0.724629 -0.021385
vn -0.735436 -0.676958 -0.029349
vn 0.481150 -0.876274 0.025265
vn 0.239091 0.970673 0.025103
vn -0.719331 0.694648 -0.005160
vn -0.797639 0.603107 -0.005706
vn 0.545650 0.837915 0.012795
vn -0.528854 -0.848706 -0.003518
vn 0.360655 0.932359 0.025186
vn 0.879619 0.475679 0.000000
vn 0.066806 0.997766 0.000000
vn 0.044769 0.998997 0.000000
vn 0.213298 0.976987 0.000000
vn 0.969343 0.245711 0.000000
vn 0.743165 0.668692 -0.023580
vn -0.060086 0.998193 0.000000
vn 0.097339 0.974909 -0.200194
vn -0.104185 0.983308 -0.149169
vn 0.091359 0.995812 0.003343
vn -0.005689 0.999984 -0.000022
vn -0.006513 0.986821 -0.161685
vn -0.218119 0.975916 -0.003533
vn -0.332252 0.943176 -0.005354
vn -0.331061 0.938452 -0.098518
vn 0.091203 0.995832 0.000423
vn 0.009819 0.999951 -0.001030
vn 0.104323 0.978481 -0.178021
vn -0.217542 0.976045 -0.003526
vn -0.301837 0.953347 -0.004857
vn -0.155571 0.980760 -0.117928
vn 0.095850 0.974508 0.202849
vn 0.105442 0.977736 0.181422
vn 0.010886 0.999939 0.001862
vn -0.005208 0.986834 0.161654
vn -0.095382 0.982591 0.159428
vn -0.096810 0.995302 -0.001573
vn -0.006118 0.999981 -0.000010
vn -0.096939 0.995289 -0.001570
vn -0.095919 0.982045 -0.162442
vn -0.106311 0.983580 0.145837
vn -0.156379 0.981206 0.113049
vn -0.302062 0.953276 -0.004859
vn -0.330744 0.939612 0.087968
vn -0.712485 0.699302 0.057802
vn -0.713885 0.700165 -0.011659
vn -0.332458 0.943103 -0.005357
vn -0.714120 0.699926 -0.011662
vn -0.712086 0.697419 -0.080879
usemtl Material
s off
f 147//1 38//1 39//1
f 147//1 39//1 148//1
f 121//2 12//2 13//2
f 121//2 13//2 122//2
f 135//3 26//3 27//3
f 135//3 27//3 136//3
f 134//4 25//4 26//4
f 134//4 26//4 135//4
f 186//5 77//5 78//5
f 186//5 78//5 187//5
f 189//6 80//6 81//6
f 189//6 81//6 190//6
f 149//7 40//7 41//7
f 149//7 41//7 150//7
f 126//8 17//8 18//8
f 126//8 18//8 127//8
f 215//9 106//9 107//9
f 215//9 107//9 216//9
f 211//10 102//10 103//10
f 211//10 103//10 212//10
f 129//11 20//11 21//11
f 129//11 21//11 130//11
f 114//12 5//12 6//12
f 114//12 6//12 115//12
f 128//13 19//13 20//13
f 128//13 20//13 129//13
f 152//14 43//14 44//14
f 152//14 44//14 153//14
f 216//15 107//15 108//15
f 216//15 108//15 217//15
f 141//16 32//16 33//16
f 141//16 33//16 142//16
f 118//17 9//17 10//17
f 118//17 10//17 119//17
f 174//18 65//18 66//18
f 174//18 66//18 175//18
f 198//19 89//19 90//19
f 198//19 90//19 199//19
f 172//20 63//20 64//20
f 172//20 64//20 173//20
f 123//21 14//21 15//21
f 123//21 15//21 124//21
f 163//22 54//22 55//22
f 163//22 55//22 164//22
f 167//23 58//23 59//23
f 167//23 59//23 168//23
f 138//24 29//24 30//24
f 138//24 30//24 139//24
f 199//25 90//25 91//25
f 199//25 91//25 200//25
f 156//26 47//26 48//26
f 156//26 48//26 157//26
f 182//27 73//27 74//27
f 182//27 74//27 183//27
f 175//28 66//28 67//28
f 175//28 67//28 176//28
f 122//29 13//29 14//29
f 122//29 14//29 123//29
f 200//30 91//30 92//30
f 200//30 92//30 201//30
f 125//31 16//31 17//31
f 125//31 17//31 126//31
f 185//32 76//32 77//32
f 185//32 77//32 186//32
f 161//33 52//33 53//33
f 161//33 53//33 162//33
f 184//34 75//34 76//34
f 184//34 76//34 185//34
f 190//35 81//35 82//35
f 190//35 82//35 191//35
f 151//36 42//36 43//36
f 151//36 43//36 152//36
f 150//37 41//37 42//37
f 150//37 42//37 151//37
f 214//38 105//38 106//38
f 214//38 106//38 215//38
f 180//39 71//39 72//39
f 180//39 72//39 181//39
f 143//40 34//40 35//40
f 143//40 35//40 144//40
f 217//41 239//41 218//41
f 217//42 223//42 239//42
f 217//43 108//43 223//43
f 108//44 232//44 223//44
f 108//45 109//45 232//45
f 144//46 35//46 36//46
f 144//46 36//46 145//46
f 213//47 104//47 105//47
f 213//47 105//47 214//47
f 204//48 95//48 96//48
f 204//48 96//48 205//48
f 197//49 88//49 89//49
f 197//49 89//49 198//49
f 159//50 50//50 51//50
f 159//50 51//50 160//50
f 130//51 21//51 22//51
f 130//51 22//51 131//51
f 178//52 69//52 70//52
f 178//52 70//52 179//52
f 206//53 97//53 98//53
f 206//53 98//53 207//53
f 136//54 27//54 28//54
f 136//54 28//54 137//54
f 142//55 33//55 34//55
f 142//55 34//55 143//55
f 137//56 28//56 29//56
f 137//56 29//56 138//56
f 194//57 85//57 86//57
f 194//57 86//57 195//57
f 162//58 53//58 54//58
f 162//58 54//58 163//58
f 127//59 18//59 19//59
f 127//59 19//59 128//59
f 116//60 7//60 8//60
f 116//60 8//60 117//60
f 164//61 55//61 56//61
f 164//61 56//61 165//61
f 187//62 78//62 79//62
f 187//62 79//62 188//62
f 111//63 2//63 3//63
f 111//63 3//63 112//63
f 146//64 37//64 38//64
f 146//64 38//64 147//64
f 203//65 94//65 95//65
f 203//65 95//65 204//65
f 210//66 101//66 102//66
f 210//66 102//66 211//66
f 176//67 67//67 68//67
f 176//67 68//67 177//67
f 170//68 61//68 62//68
f 170//68 62//68 171//68
f 113//69 4//69 5//69
f 113//69 5//69 114//69
f 195//70 86//70 87//70
f 195//70 87//70 196//70
f 177//71 68//71 69//71
f 177//71 69//71 178//71
f 202//72 93//72 94//72
f 202//72 94//72 203//72
f 139//73 30//73 31//73
f 139//73 31//73 140//73
f 212//74 103//74 104//74
f 212//74 104//74 213//74
f 160//75 51//75 52//75
f 160//75 52//75 161//75
f 117//76 8//76 9//76
f 117//76 9//76 118//76
f 192//77 83//77 84//77
f 192//77 84//77 193//77
f 183//78 74//78 75//78
f 183//78 75//78 184//78
f 205//79 96//79 97//79
f 205//79 97//79 206//79
f 166//80 57//80 58//80
f 166//80 58//80 167//80
f 171//81 62//81 63//81
f 171//81 63//81 172//81
f 155//82 46//82 47//82
f 155//82 47//82 156//82
f 193//83 84//83 85//83
f 193//83 85//83 194//83
f 191//84 82//84 83//84
f 191//84 83//84 192//84
f 148//85 39//85 40//85
f 148//85 40//85 149//85
f 165//86 56//86 57//86
f 165//86 57//86 166//86
f 119//87 10//87 11//87
f 119//87 11//87 120//87
f 115//88 6//88 7//88
f 115//88 7//88 116//88
f 120//89 11//89 12//89
f 120//89 12//89 121//89
f 145//90 36//90 37//90
f 145//90 37//90 146//90
f 157//91 48//91 49//91
f 157//91 49//91 158//91
f 158//92 49//92 50//92
f 158//92 50//92 159//92
f 196//93 87//93 88//93
f 196//93 88//93 197//93
f 110//94 1//94 2//94
f 110//94 2//94 111//94
f 173//95 64//95 65//95
f 173//95 65//95 174//95
f 140//96 31//96 32//96
f 140//96 32//96 141//96
f 154//97 45//97 46//97
f 154//97 46//97 155//97
f 179//98 70//98 71//98
f 179//98 71//98 180//98
f 188//99 79//99 80//99
f 188//99 80//99 189//99
f 209//100 100//100 101//100
f 209//100 101//100 210//100
f 168//101 59//101 60//101
f 168//101 60//101 169//101
f 169//102 60//102 61//102
f 169//102 61//102 170//102
f 207//103 98//103 99//103
f 207//103 99//103 208//103
f 181//104 72//104 73//104
f 181//104 73//104 182//104
f 208//105 99//105 100//105
f 208//105 100//105 209//105
f 112//106 3//106 4//106
f 112//106 4//106 113//106
f 132//107 23//107 24//107
f 132//107 24//107 133//107
f 124//108 15//108 16//108
f 124//108 16//108 125//108
f 133//109 24//109 25//109
f 133//109 25//109 134//109
f 201//110 92//110 93//110
f 201//110 93//110 202//110
f 153//111 44//111 45//111
f 153//111 45//111 154//111
f 131//112 22//112 23//112
f 131//112 23//112 132//112
f 254//113 232//113 109//113
f 254//113 109//113 234//113
f 255//114 233//114 219//114
f 255//114 219//114 237//114
f 256//115 239//115 223//115
f 256//115 223//115 246//115
f 257//116 248//116 230//116
f 257//116 230//116 247//116
f 258//117 249//117 225//117
f 258//117 225//117 241//117
f 259//118 240//118 224//118
f 259//118 224//118 250//118
f 260//119 252//119 231//119
f 260//119 231//119 251//119
f 261//120 253//120 228//120
f 261//120 228//120 244//120
f 246//121 223//121 232//121
f 246//121 232//121 254//121
f 230//122 246//122 254//122
f 230//122 254//122 249//122
f 249//123 254//123 234//123
f 249//123 234//123 225//123
f 250//124 224//124 233//124
f 250//124 233//124 255//124
f 231//125 250//125 255//125
f 231//125 255//125 253//125
f 253//126 255//126 237//126
f 253//126 237//126 228//126
f 242//127 218//127 239//127
f 242//127 239//127 256//127
f 226//128 242//128 256//128
f 226//128 256//128 248//128
f 248//129 256//129 246//129
f 248//129 246//129 230//129
f 235//130 226//130 248//130
f 235//130 248//130 257//130
f 220//131 235//131 257//131
f 220//131 257//131 240//131
f 240//132 257//132 247//132
f 240//132 247//132 224//132
f 247//133 230//133 249//133
f 247//133 249//133 258//133
f 224//134 247//134 258//134
f 224//134 258//134 233//134
f 233//135 258//135 241//135
f 233//135 241//135 219//135
f 245//136 220//136 240//136
f 245//136 240//136 259//136
f 229//137 245//137 259//137
f 229//137 259//137 252//137
f 252//138 259//138 250//138
f 252//138 250//138 231//138
f 238//139 229//139 252//139
f 238//139 252//139 260//139
f 222//140 238//140 260//140
f 222//140 260//140 243//140
f 243//141 260//141 251//141
f 243//141 251//141 227//141
f 251//142 231//142 253//142
f 251//142 253//142 261//142
f 227//143 251//143 261//143
f 227//143 261//143 236//143
f 236//144 261//144 244//144
f 236//144 244//144 221//144
