# Blender v2.63 (sub 0) OBJ File: 'agg3.blend'
# www.blender.org
mtllib agg3.mtl
o bound5_Cube.004
v -7.636837 2.374363 -3.675041
v -7.159676 2.370349 -5.080942
v -0.950435 -0.970268 -2.963996
v -1.427596 -0.966254 -1.558096
v -6.773604 4.161292 -3.387163
v -6.296443 4.157278 -4.793064
v -0.087202 0.816661 -2.676118
v -0.564363 0.820675 -1.270218
vn -0.843442 0.453778 -0.287559
vn 0.321391 -0.002704 -0.946943
vn 0.843442 -0.453778 0.287559
vn -0.321391 0.002704 0.946943
vn -0.430479 -0.891111 -0.143560
vn 0.430479 0.891111 0.143560
usemtl Material
s off
f 2//1 1//1 5//1
f 2//1 5//1 6//1
f 6//2 7//2 3//2
f 6//2 3//2 2//2
f 7//3 8//3 4//3
f 7//3 4//3 3//3
f 1//4 4//4 8//4
f 1//4 8//4 5//4
f 1//5 2//5 3//5
f 1//5 3//5 4//5
f 8//6 7//6 6//6
f 8//6 6//6 5//6
o bound_Cube.003
v 2.014990 -2.304563 -4.163933
v 2.525376 -2.240406 -2.214503
v 0.578168 -0.452780 -1.763530
v 0.067782 -0.516937 -3.712960
v 2.943608 -1.222730 -4.442662
v 3.453995 -1.158573 -2.493232
v 1.506787 0.629052 -2.042259
v 0.996400 0.564895 -3.991689
vn 0.726156 -0.666644 -0.168177
vn 0.253148 0.031821 0.966904
vn -0.726156 0.666644 0.168177
vn -0.253148 -0.031821 -0.966904
vn -0.639229 -0.744697 0.191867
vn 0.639229 0.744697 -0.191867
usemtl Material
s off
f 10//7 9//7 13//7
f 10//7 13//7 14//7
f 14//8 15//8 11//8
f 14//8 11//8 10//8
f 15//9 16//9 12//9
f 15//9 12//9 11//9
f 9//10 12//10 16//10
f 9//10 16//10 13//10
f 9//11 10//11 11//11
f 9//11 11//11 12//11
f 16//12 15//12 14//12
f 16//12 14//12 13//12
o bound.002_Cube.002
v -0.785636 1.092662 0.060268
v -0.442884 2.523441 1.890335
v 1.502946 2.717072 1.374518
v 1.160195 1.286294 -0.455548
v -0.245478 -0.755600 1.404107
v 0.097273 0.675178 3.234174
v 2.043104 0.868809 2.718357
v 1.700353 -0.561969 0.888291
vn -0.962173 -0.095747 0.255061
vn 0.145967 0.609325 0.779369
vn 0.962173 0.095747 -0.255061
vn -0.145967 -0.609325 -0.779369
vn -0.230037 0.787119 -0.572300
vn 0.230037 -0.787119 0.572300
usemtl Material
s off
f 18//13 17//13 21//13
f 18//13 21//13 22//13
f 22//14 23//14 19//14
f 22//14 19//14 18//14
f 23//15 24//15 20//15
f 23//15 20//15 19//15
f 17//16 20//16 24//16
f 17//16 24//16 21//16
f 17//17 18//17 19//17
f 17//17 19//17 20//17
f 24//18 23//18 22//18
f 24//18 22//18 21//18
o bound.001_Cube.001
v -1.666513 1.022837 -3.332675
v -0.431416 1.178092 1.384800
v 1.492930 1.369585 0.874678
v 0.257833 1.214330 -3.842797
v -1.465125 -0.966957 -3.319916
v -0.230028 -0.811702 1.397559
v 1.694318 -0.620209 0.887438
v 0.459221 -0.775464 -3.830037
vn -0.100694 0.994897 -0.006380
vn 0.100694 -0.994897 0.006380
usemtl Material
s off
f 26//13 25//13 29//13
f 26//13 29//13 30//13
f 30//8 31//8 27//8
f 30//8 27//8 26//8
f 31//15 32//15 28//15
f 31//15 28//15 27//15
f 25//10 28//10 32//10
f 25//10 32//10 29//10
f 25//19 26//19 27//19
f 25//19 27//19 28//19
f 32//20 31//20 30//20
f 32//20 30//20 29//20
o Cube
v 0.772153 1.278981 -1.878340
v 0.265857 1.215338 -3.812149
v -1.658489 1.023845 -3.302027
v -1.152192 1.087488 -1.368219
v 0.973541 -0.710813 -1.865582
v 0.467244 -0.774456 -3.799390
v -1.457101 -0.965949 -3.289268
v -0.950804 -0.902306 -1.355460
v 1.147745 1.311688 -0.449207
v -0.776600 1.120195 0.060915
v 1.690513 -0.601406 0.880141
v -0.233833 -0.792899 1.390263
v 1.492432 2.705825 1.369316
v -0.434411 2.514083 1.880101
v 2.031533 0.833427 2.700105
v 0.104688 0.641686 3.210888
v 3.468715 -1.259970 -2.500778
v 2.962419 -1.323613 -4.434587
v 2.556518 -2.185562 -2.231492
v 2.050220 -2.249205 -4.165299
v -6.607585 4.150417 -5.087267
v -7.201251 4.204680 -3.489621
v -6.473276 2.453875 -4.979737
v -7.066941 2.508139 -3.382091
vn -0.253149 -0.031821 -0.966904
vn -0.526622 -0.849961 0.015349
vn 0.962089 0.095414 -0.255500
vn -0.962173 -0.095746 0.255061
vn -0.098223 0.995160 0.003039
vn 0.102398 -0.994660 0.012895
vn 0.148400 0.600940 0.785397
vn -0.962256 -0.096079 0.254621
vn 0.230619 -0.784675 0.575414
vn -0.228597 0.793045 -0.564644
vn 0.680800 -0.715951 -0.154680
vn 0.648382 0.736187 -0.193983
vn -0.644557 -0.739770 0.193100
vn -0.934128 -0.095746 -0.343858
vn 0.498090 0.866966 -0.016623
vn 0.328814 -0.000873 -0.944394
vn -0.321974 0.001573 0.946747
usemtl Material
s off
f 33//19 34//19 35//19
f 33//19 35//19 36//19
f 37//20 40//20 39//20
f 37//20 39//20 38//20
f 33//8 37//8 51//8
f 33//8 51//8 49//8
f 34//21 38//21 39//21
f 34//21 39//21 35//21
f 39//22 40//22 56//22
f 39//22 56//22 55//22
f 37//15 33//15 41//15
f 37//15 41//15 43//15
f 45//23 47//23 43//23
f 45//23 43//23 41//23
f 36//24 40//24 44//24
f 36//24 44//24 42//24
f 33//25 36//25 42//25
f 33//25 42//25 41//25
f 43//26 44//26 40//26
f 43//26 40//26 37//26
f 47//27 45//27 46//27
f 47//27 46//27 48//27
f 42//28 44//28 48//28
f 42//28 48//28 46//28
f 47//29 48//29 44//29
f 47//29 44//29 43//29
f 41//30 42//30 46//30
f 41//30 46//30 45//30
f 49//31 51//31 52//31
f 49//31 52//31 50//31
f 34//32 33//32 49//32
f 34//32 49//32 50//32
f 50//10 52//10 38//10
f 50//10 38//10 34//10
f 37//33 38//33 52//33
f 37//33 52//33 51//33
f 53//34 55//34 56//34
f 53//34 56//34 54//34
f 53//35 54//35 36//35
f 53//35 36//35 35//35
f 35//36 39//36 55//36
f 35//36 55//36 53//36
f 54//37 56//37 40//37
f 54//37 40//37 36//37
