dim 11.105552 6.509243 8.321441
# Blender v2.63 (sub 0) OBJ File: 'agg3.blend'
# www.blender.org
mtllib agg3.mtl
o bound5_Cube.004
v -5.552776 1.4243045 -2.7484944
v -5.075615 1.4202905 -4.1543956
v 1.1336262 -1.9203265 -2.0374494
v 0.6564652 -1.9163125 -0.6315495
v -4.689543 3.2112336 -2.4606164
v -4.212382 3.2072196 -3.8665175
v 1.9968592 -0.13339746 -1.7495713
v 1.5196981 -0.12938344 -0.34367144
vn -0.843442 0.453778 -0.287559
vn 0.321391 -0.002704 -0.946943
vn 0.843442 -0.453778 0.287559
vn -0.321391 0.002704 0.946943
vn -0.430479 -0.891111 -0.143560
vn 0.430479 0.891111 0.143560
usemtl Material
s off
f 2//1 1//1 5//1
f 2//1 5//1 6//1
f 6//2 7//2 3//2
f 6//2 3//2 2//2
f 7//3 8//3 4//3
f 7//3 4//3 3//3
f 1//4 4//4 8//4
f 1//4 8//4 5//4
f 1//5 2//5 3//5
f 1//5 3//5 4//5
f 8//6 7//6 6//6
f 8//6 6//6 5//6
o bound_Cube.003
v 4.0990515 -3.2546215 -3.2373862
v 4.609437 -3.1904645 -1.2879565
v 2.662229 -1.4028385 -0.83698344
v 2.151843 -1.4669955 -2.7864134
v 5.027669 -2.1727886 -3.5161152
v 5.5380564 -2.1086316 -1.5666854
v 3.590848 -0.32100648 -1.1157124
v 3.080461 -0.3851635 -3.0651424
vn 0.726156 -0.666644 -0.168177
vn 0.253148 0.031821 0.966904
vn -0.726156 0.666644 0.168177
vn -0.253148 -0.031821 -0.966904
vn -0.639229 -0.744697 0.191867
vn 0.639229 0.744697 -0.191867
usemtl Material
s off
f 10//7 9//7 13//7
f 10//7 13//7 14//7
f 14//8 15//8 11//8
f 14//8 11//8 10//8
f 15//9 16//9 12//9
f 15//9 12//9 11//9
f 9//10 12//10 16//10
f 9//10 16//10 13//10
f 9//11 10//11 11//11
f 9//11 11//11 12//11
f 16//12 15//12 14//12
f 16//12 14//12 13//12
o bound.002_Cube.002
v 1.2984252 0.14260352 0.98681456
v 1.6411772 1.5733826 2.8168817
v 3.587007 1.7670135 2.3010645
v 3.244256 0.33623552 0.4709986
v 1.8385831 -1.7056584 2.3306537
v 2.1813343 -0.27488047 4.160721
v 4.127165 -0.081249475 3.6449037
v 3.7844143 -1.5120275 1.8148376
vn -0.962173 -0.095747 0.255061
vn 0.145967 0.609325 0.779369
vn 0.962173 0.095747 -0.255061
vn -0.145967 -0.609325 -0.779369
vn -0.230037 0.787119 -0.572300
vn 0.230037 -0.787119 0.572300
usemtl Material
s off
f 18//13 17//13 21//13
f 18//13 21//13 22//13
f 22//14 23//14 19//14
f 22//14 19//14 18//14
f 23//15 24//15 20//15
f 23//15 20//15 19//15
f 17//16 20//16 24//16
f 17//16 24//16 21//16
f 17//17 18//17 19//17
f 17//17 19//17 20//17
f 24//18 23//18 22//18
f 24//18 22//18 21//18
o bound.001_Cube.001
v 0.41754818 0.07277858 -2.4061284
v 1.6526451 0.22803354 2.3113465
v 3.576991 0.41952658 1.8012246
v 2.3418941 0.2642715 -2.9162505
v 0.6189362 -1.9170154 -2.3933694
v 1.8540331 -1.7617605 2.3241057
v 3.7783792 -1.5702674 1.8139846
v 2.543282 -1.7255225 -2.9034905
vn -0.100694 0.994897 -0.006380
vn 0.100694 -0.994897 0.006380
usemtl Material
s off
f 26//13 25//13 29//13
f 26//13 29//13 30//13
f 30//8 31//8 27//8
f 30//8 27//8 26//8
f 31//15 32//15 28//15
f 31//15 28//15 27//15
f 25//10 28//10 32//10
f 25//10 32//10 29//10
f 25//19 26//19 27//19
f 25//19 27//19 28//19
f 32//20 31//20 30//20
f 32//20 30//20 29//20
o Cube
v 2.856214 0.3289225 -0.95179343
v 2.3499181 0.26527953 -2.8856025
v 0.42557216 0.0737865 -2.3754804
v 0.93186915 0.1374296 -0.44167244
v 3.0576022 -1.6608715 -0.9390354
v 2.551305 -1.7245145 -2.8728435
v 0.62696016 -1.9160075 -2.3627214
v 1.1332572 -1.8523645 -0.42891347
v 3.2318063 0.3616295 0.47733957
v 1.3074611 0.17013657 0.98746157
v 3.7745743 -1.5514644 1.8066876
v 1.8502282 -1.7429575 2.3168097
v 3.5764933 1.7557666 2.2958627
v 1.6496501 1.5640244 2.8066475
v 4.115594 -0.11663145 3.6266515
v 2.188749 -0.30837244 4.1374345
v 5.5527763 -2.2100284 -1.5742314
v 5.04648 -2.2736716 -3.5080404
v 4.640579 -3.1356204 -1.3049455
v 4.134281 -3.1992636 -3.2387524
v -4.523524 3.2003584 -4.1607203
v -5.11719 3.2546215 -2.5630744
v -4.389215 1.5038166 -4.05319
v -4.9828796 1.5580804 -2.4555445
vn -0.253149 -0.031821 -0.966904
vn -0.526622 -0.849961 0.015349
vn 0.962089 0.095414 -0.255500
vn -0.962173 -0.095746 0.255061
vn -0.098223 0.995160 0.003039
vn 0.102398 -0.994660 0.012895
vn 0.148400 0.600940 0.785397
vn -0.962256 -0.096079 0.254621
vn 0.230619 -0.784675 0.575414
vn -0.228597 0.793045 -0.564644
vn 0.680800 -0.715951 -0.154680
vn 0.648382 0.736187 -0.193983
vn -0.644557 -0.739770 0.193100
vn -0.934128 -0.095746 -0.343858
vn 0.498090 0.866966 -0.016623
vn 0.328814 -0.000873 -0.944394
vn -0.321974 0.001573 0.946747
usemtl Material
s off
f 33//19 34//19 35//19
f 33//19 35//19 36//19
f 37//20 40//20 39//20
f 37//20 39//20 38//20
f 33//8 37//8 51//8
f 33//8 51//8 49//8
f 34//21 38//21 39//21
f 34//21 39//21 35//21
f 39//22 40//22 56//22
f 39//22 56//22 55//22
f 37//15 33//15 41//15
f 37//15 41//15 43//15
f 45//23 47//23 43//23
f 45//23 43//23 41//23
f 36//24 40//24 44//24
f 36//24 44//24 42//24
f 33//25 36//25 42//25
f 33//25 42//25 41//25
f 43//26 44//26 40//26
f 43//26 40//26 37//26
f 47//27 45//27 46//27
f 47//27 46//27 48//27
f 42//28 44//28 48//28
f 42//28 48//28 46//28
f 47//29 48//29 44//29
f 47//29 44//29 43//29
f 41//30 42//30 46//30
f 41//30 46//30 45//30
f 49//31 51//31 52//31
f 49//31 52//31 50//31
f 34//32 33//32 49//32
f 34//32 49//32 50//32
f 50//10 52//10 38//10
f 50//10 38//10 34//10
f 37//33 38//33 52//33
f 37//33 52//33 51//33
f 53//34 55//34 56//34
f 53//34 56//34 54//34
f 53//35 54//35 36//35
f 53//35 36//35 35//35
f 35//36 39//36 55//36
f 35//36 55//36 53//36
f 54//37 56//37 40//37
f 54//37 40//37 36//37
