# Blender v2.63 (sub 0) OBJ File: 'agg4.blend'
# www.blender.org
mtllib agg4.mtl
o Bound.001_Cube.003
v 0.619482 1.056410 -3.717471
v -1.691198 1.056410 -3.717472
v -1.691198 1.056410 -6.419944
v 0.619483 1.056410 -6.419943
v 0.619482 3.208091 -3.717471
v -1.691198 3.208091 -3.717472
v -1.691198 3.208091 -6.419944
v 0.619483 3.208091 -6.419943
vn -0.000000 0.000000 1.000000
vn -1.000000 0.000000 -0.000000
vn 0.000000 0.000000 -1.000000
vn 1.000000 0.000000 0.000000
vn 0.000000 -1.000000 0.000000
vn 0.000000 1.000000 0.000000
usemtl Material
s off
f 2//1 1//1 5//1
f 2//1 5//1 6//1
f 6//2 7//2 3//2
f 6//2 3//2 2//2
f 7//3 8//3 4//3
f 7//3 4//3 3//3
f 1//4 4//4 8//4
f 1//4 8//4 5//4
f 1//5 2//5 3//5
f 1//5 3//5 4//5
f 8//6 7//6 6//6
f 8//6 6//6 5//6
o Bound_Cube.002
v 0.107309 1.850721 1.966234
v -0.471926 1.850721 1.966234
v -0.471925 1.850721 -3.698426
v 0.107309 1.850721 -3.698426
v 0.107309 2.429956 1.966234
v -0.471926 2.429956 1.966234
v -0.471925 2.429956 -3.698426
v 0.107309 2.429956 -3.698426
usemtl Material
s off
f 10//1 9//1 13//1
f 10//1 13//1 14//1
f 14//2 15//2 11//2
f 14//2 11//2 10//2
f 15//3 16//3 12//3
f 15//3 12//3 11//3
f 9//4 12//4 16//4
f 9//4 16//4 13//4
f 9//5 10//5 11//5
f 9//5 11//5 12//5
f 16//6 15//6 14//6
f 16//6 14//6 13//6
o Bound.002_Cube.001
v 0.171386 -0.459531 2.595245
v -0.536003 -0.459531 2.595245
v -0.536003 -0.459531 1.887856
v 0.171386 -0.459531 1.887856
v 0.171386 2.331755 2.595245
v -0.536003 2.331755 2.595245
v -0.536003 2.331755 1.887856
v 0.171386 2.331755 1.887856
usemtl Material
s off
f 18//1 17//1 21//1
f 18//1 21//1 22//1
f 22//2 23//2 19//2
f 22//2 19//2 18//2
f 23//3 24//3 20//3
f 23//3 20//3 19//3
f 17//4 20//4 24//4
f 17//4 24//4 21//4
f 17//5 18//5 19//5
f 17//5 19//5 20//5
f 24//6 23//6 22//6
f 24//6 22//6 21//6
o Cube
v -0.496621 -0.449599 1.932210
v 0.132008 -0.449599 1.932210
v 0.132007 -0.449599 2.560838
v -0.496621 -0.449599 2.560838
v -0.496620 1.905573 1.932210
v 0.132008 1.905573 1.932210
v 0.132007 1.905573 2.560839
v -0.496621 1.905573 2.560838
v -0.496620 2.424979 1.932210
v 0.132008 2.424979 1.932210
v 0.132007 2.424979 2.560839
v -0.496621 2.424979 2.560838
v -0.496617 1.905573 -3.637843
v 0.132011 1.905573 -3.637843
v -0.496617 2.424979 -3.637843
v 0.132011 2.424979 -3.637843
v -1.828132 1.152901 -4.067704
v 0.658224 1.152901 -4.067704
v -1.828132 3.207258 -4.067704
v 0.658224 3.207258 -4.067704
v -1.828132 1.152901 -6.487034
v 0.658225 1.152901 -6.487034
v -1.828132 3.207258 -6.487034
v 0.658225 3.207258 -6.487034
vn 1.000000 0.000000 0.000001
vn -0.000001 0.000000 1.000000
vn 0.000000 0.481581 0.876402
vn -1.000000 0.000000 -0.000001
vn 0.632640 0.000000 0.774446
vn -0.307223 0.000000 0.951638
vn 0.000000 -0.495932 0.868361
usemtl Material
s off
f 25//5 26//5 27//5
f 25//5 27//5 28//5
f 34//7 35//7 31//7
f 34//7 31//7 30//7
f 25//3 29//3 30//3
f 25//3 30//3 26//3
f 26//4 30//4 31//4
f 26//4 31//4 27//4
f 27//1 31//1 32//1
f 27//1 32//1 28//1
f 29//2 25//2 28//2
f 29//2 28//2 32//2
f 33//6 36//6 35//6
f 33//6 35//6 34//6
f 35//8 36//8 32//8
f 35//8 32//8 31//8
f 38//7 40//7 34//7
f 38//7 34//7 30//7
f 29//2 32//2 36//2
f 29//2 36//2 33//2
f 39//9 40//9 44//9
f 39//9 44//9 43//9
f 29//10 33//10 39//10
f 29//10 39//10 37//10
f 37//5 38//5 30//5
f 37//5 30//5 29//5
f 33//6 34//6 40//6
f 33//6 40//6 39//6
f 45//5 46//5 42//5
f 45//5 42//5 41//5
f 42//11 44//11 40//11
f 42//11 40//11 38//11
f 37//12 39//12 43//12
f 37//12 43//12 41//12
f 41//13 42//13 38//13
f 41//13 38//13 37//13
f 47//3 48//3 46//3
f 47//3 46//3 45//3
f 43//6 44//6 48//6
f 43//6 48//6 47//6
f 46//4 48//4 44//4
f 46//4 44//4 42//4
f 41//2 43//2 47//2
f 41//2 47//2 45//2
