# Blender v2.63 (sub 0) OBJ File: ''
# www.blender.org
mtllib flat.mtl
o Plane_Plane.001
v 7.380867 0.000000 7.380867
v -7.380867 0.000000 7.380867
v 7.380867 0.000000 -7.380867
v -7.380867 0.000000 -7.380867
v 0.000000 0.000000 7.380867
v 0.000000 0.000000 -7.380867
v -7.380867 0.000000 0.000000
v 7.380867 0.000000 0.000000
v 0.000000 -0.940101 0.000000
vn 0.000000 0.991986 -0.126349
vn -0.126349 0.991986 0.000000
vn -0.000000 0.991986 0.126349
vn 0.126349 0.991986 0.000000
usemtl Material
s off
f 9//1 2//1 5//1
f 5//1 1//1 9//1
f 9//2 1//2 8//2
f 8//2 3//2 9//2
f 9//3 3//3 6//3
f 9//4 4//4 7//4
f 6//3 4//3 9//3
f 7//4 2//4 9//4
