dim 0.935192 8.269515 0.935192
# Blender v2.63 (sub 0) OBJ File: ''
# www.blender.org
mtllib tall.mtl
o Cube
v 0.467596 -4.1347575 -0.467596
v 0.467596 -4.1347575 0.467596
v -0.467596 -4.1347575 0.467596
v -0.467596 -4.1347575 -0.467596
v 0.467596 4.1347575 -0.467595
v 0.467595 4.1347575 0.467596
v -0.467596 4.1347575 0.467596
v -0.467596 4.1347575 -0.467596
vn 0.000000 -1.000000 0.000000
vn 0.000000 1.000000 0.000000
vn 1.000000 0.000000 0.000000
vn -0.000000 -0.000000 1.000000
vn -1.000000 -0.000000 -0.000000
vn 0.000000 0.000000 -1.000000
usemtl Material
s off
f 1//1 2//1 3//1
f 1//1 3//1 4//1
f 5//2 8//2 7//2
f 5//2 7//2 6//2
f 1//3 5//3 6//3
f 1//3 6//3 2//3
f 2//4 6//4 7//4
f 2//4 7//4 3//4
f 3//5 7//5 8//5
f 3//5 8//5 4//5
f 5//6 1//6 4//6
f 5//6 4//6 8//6
